<?xml version="1.0" standalone="no"?><!DOCTYPE svg PUBLIC "-//W3C//DTD SVG 1.1//EN" "http://www.w3.org/Graphics/SVG/1.1/DTD/svg11.dtd"><svg t="1657036965666" class="icon" viewBox="0 0 1024 1024" version="1.1" xmlns="http://www.w3.org/2000/svg" p-id="4511" xmlns:xlink="http://www.w3.org/1999/xlink" width="200" height="200"><defs><style type="text/css">@font-face { font-family: feedback-iconfont; src: url("//at.alicdn.com/t/font_1031158_u69w8yhxdu.woff2?t=1630033759944") format("woff2"), url("//at.alicdn.com/t/font_1031158_u69w8yhxdu.woff?t=1630033759944") format("woff"), url("//at.alicdn.com/t/font_1031158_u69w8yhxdu.ttf?t=1630033759944") format("truetype"); }
</style></defs><path d="M652.5 289.5h0.9c11.1 0 22.5-6.3 30.8-17 2.9-3.7 36.1-50 67.6-96.4 63.1-92.8 63.5-102.9 63-107.6-0.2-3.4-2-5.6-2.7-6.5l-0.5-0.6c-1.9-1.9-4.3-2.9-6.9-3-5.3-0.2-13.5 0-91.5 88.9-38.7 44.1-74.8 87.6-75.5 88.5-7.3 9.3-11 20.7-9.9 30.3 0.8 13 11.6 23.2 24.7 23.4zM756.8 329.9c-7.1 9-10.7 20.4-9.6 30.5 0.7 7.2 4.1 13.6 9.7 18l0.2 0.2c4.2 3.1 9.4 4.9 14.6 5.1h1c11.2 0 22.5-6.3 30.4-17 3.1-4 36-49.9 67.7-96.4 62.3-91.5 63.5-102.7 63-107.5 0-2-0.7-4.7-3.3-7.3-1.8-1.8-4.3-2.9-6.8-2.9-5.3-0.2-13.6 0-91.6 88.9-37.7 43.2-73.2 85.9-75.3 88.4zM696.9 282.9c-7.1 9.1-10.6 20.4-9.3 30.5 0.7 7.2 4.1 13.5 9.7 18l0.2 0.2c4.2 3.1 9.4 4.9 14.6 5.1h0.9c10.8 0 22.8-6.6 30.8-16.9 2.8-3.7 35.9-49.7 67.7-96.5 62.3-91.5 63.5-102.7 63-107.5 0-3.6-2-5.9-2.7-6.7l-0.5-0.6c-1.9-1.9-4.3-2.9-6.9-3-5.4-0.2-13.9 0-91.9 88.9-38.6 43.8-74.9 87.6-75.6 88.5z" p-id="4512" fill="#13227a"></path><path d="M932.9 374.4l-3.4-3.7-3.3-2.1h-2.9c-5.5-0.1-11.1 3.6-21.5 12-23.9 18.4-73.6 56.8-143.9 54.4-8.8-0.4-18.3-1.5-29-3.4h-0.1c-6.9-1.1-14-2.6-23-5h-0.2l-5.1-1.2c-15.4-3.6-31.4-7.4-47.6-8-12.2-0.4-22.9 1-32.4 4.3 45.6-65.7 46.3-72.5 46-76.2-0.2-3.4-2-6.3-4.9-7.9l-2.5-1.4h-2.6c-5.5-0.2-9.7 0.1-60.8 59 0.3-25.9-13.4-51.7-25.8-75.3-1.3-2.5-2.5-4.9-3.8-7.2-2.7-5.1-5.2-10-7.3-14.5-36.2-79.8-6.8-147.8 7.3-180.5l0.2-0.5c5.7-12.3 7.8-18.4 6.3-24.1l-0.2-0.7-1.6-3.2-4.6-3.3h-3c-2.6-0.1-5.7 0.1-23.6 16.6-11.9 10.9-25.6 25-38.8 39.6-26.1 29-61.9 73.4-83.7 119.9-42.4 90-15.1 155.5 21.1 184.1 18.6 15.1 42 23.9 66 24.9 10.4 0.3 20.6-0.9 30.3-3.6-20 23.8-42.8 51.3-68.1 82 0.2-29.8-17.3-56.2-32-78.4-6.7-9.9-11.9-18.4-15.9-25.9-45.3-87.4-27.4-153.4-18.7-185.2l0.9-3.4c2.7-10.1 4.2-15.6 2.2-20.9l-1.6-3.2-4.6-3.3h-3.1c-2.6-0.1-6.1 0.1-22.9 16.9-10.8 10.8-23.4 25-35.6 39.9-19.4 23.8-55.2 71-76.8 120.7-40.6 92.5-6.6 162.9 34.8 195 23.7 18.8 51.9 29.6 79.5 30.6 9.7 0.4 19-0.5 27.8-2.5-22.9 27.9-47 57.4-72 88.2 1.2-29.2-17.2-50.8-32.8-69.2l-0.1-0.1c-7.6-8.6-15.4-18-20.5-27.7-47.2-91.2-39.9-166.6-37.1-195v-0.1c0.1-1.3 0.2-2.5 0.3-3.7 0.8-9.2 1.2-14.3-0.7-18.4l-0.5-1.2-1.8-1.8-3.7-2.6H228c-4.2-0.3-7.8 1.9-20.4 19.5-8 11.2-18.1 26.7-28.5 43.6-25.8 42.1-49.5 86.6-64.9 122-40 92.1-6 162.6 35.2 195.1 24.3 18.8 52.5 29.6 79.4 30.6 9.6 0.4 18.7-0.5 27.4-2.6-29.3 36.3-48.6 60.6-51.1 63.9-7.8 9.6-11.5 21.4-10.3 32.4 1 8.7 5 16.3 11.4 21.3 5 3.9 11.2 6.1 17.5 6.1h0.8c11.5 0 24.1-6.4 33.9-17.2l0.3-0.4c0.8-1.1 21.7-28.6 53.4-70.9-2.5 36.5 16.3 77.5 52.4 105.9 22.9 17.6 51.3 27.8 79.9 28.7 1.7 0.1 3.5 0.1 5.2 0.1 38.1 0 76.4-14.3 111-41.5 43.2-33.6 83.1-73.5 103.1-94.4 12.9-13.5 25-26.8 34-37.4 14.1-16.7 14.4-19.3 14.5-21.6l0.3-4.9-6.3-5.2-3.7-0.3h-0.3c-4.4-0.1-9.7 1.5-19.9 5.1-21 7.5-64.8 23.2-126.2 21.1-21.8-0.7-44.9-4-70.8-10-9-2.3-18.4-6.9-28.3-11.8-1.2-0.6-2.5-1.2-3.7-1.8-15.9-8-33.9-17.2-53.9-17.9-9.3-0.3-18.3 1.3-27 4.9 23.3-31.2 48.5-65.1 74-99.6-1.7 36.1 17.4 75.8 52.7 103.5 22.9 17.6 51.3 27.8 79.9 28.7 40 1.4 80.3-13.3 116.4-42.3 40.9-31.9 75.7-74.4 97.6-104.4 11-15 21.4-30.5 29.3-43.8 10.8-18.1 11.5-22.1 11.4-24.1l0.3-4.1-2.3-2.6 0.1-3.4h-3.2l-3-3.4-2.7 3.4c-5 0.3-10.3 3.4-19.4 8.5-22.2 12.8-63.5 36.6-128.9 34.4-17.8-0.6-36.3-3.1-54.7-7.5-8.3-2-17.5-4.9-29-9l-1.3-0.5c-18.7-6.5-38-13.2-58.1-13.9-10.3-0.4-19.9 0.9-28.7 3.9 27.2-37 49.8-68.2 68.7-94.5-0.7 7-0.6 14.1 0.4 21.3 3.6 28.3 19.2 55.2 42.8 73.8 18.3 14.1 41.2 22.2 64.4 22.8 1.5 0.1 3 0.1 4.5 0.1 37.3 0 76.7-15.9 114.4-46.2l0.1-0.1c38.9-32.2 72.7-77.6 94.3-109.9 10.7-16.1 20.9-32.9 28.8-47.3 11.2-20.5 11.3-24.2 11.3-25.9v-4zM369.1 828.7c14.9-19.3 23.7-21.6 27-21.6h0.8c0.5 0 1.6 0 2.8-0.4 8.3 0.9 19.5 6.4 31.3 12.4 13 6.6 27.3 13.3 42.8 17.3h0.1c26.6 6.3 53.8 10.1 80.8 11.1 10 0.4 19.7 0.4 29.5 0-17 15.9-35 31.5-53.7 46.5-24.8 19.4-51.5 30.2-77.1 31.2l-6.8-0.2c-19.2-0.7-36.1-6.6-50.2-17.7-14.4-11.4-25.5-26.7-30.5-42.1-4.7-14.5-3.6-27.6 3.2-36.5zM504 645.4c10-12.5 17.6-13.8 25.1-14l1.7 0.1c11.5 0.4 27 5.7 40.7 10.4 1.4 0.5 2.8 1 4.2 1.4 9.8 3.3 22 7.5 33.6 10.5h0.1c21.4 5.1 43.3 8.2 65.1 9.1 14.1 0.5 28.4-0.1 42.7-1.8-18 20.1-35.5 36.8-52 49.7-24.8 19.4-51.5 30.2-77 31.2l-6.8-0.2c-19.2-0.7-36.1-6.6-50.2-17.7-14.4-11.4-25.5-26.7-30.4-42-4.7-14.7-3.5-27.7 3.2-36.7zM161 604c9.7-21.8 20.1-43.1 31.2-63.6 7.2 34.7 19.5 69.8 36.9 104.7 6.8 13.7 16 24.5 24.8 34.9l2.5 3 0.7 0.7 2.7 3.3c8 9.7 15.5 18.9 16.9 25.9l0.1 0.3c1.9 7.3-3.1 19-13.9 32.8l-0.1 0.1c-6.2 8.4-17.6 12.7-31.9 12.2-16.4-0.5-34.7-7.7-50.1-19.6-15.6-12.4-26.3-30.2-30.9-51.5-5.6-25.2-1.7-54 11.1-83.2z m245-35.2l-0.1 0.2c-6.2 8.4-17.5 12.7-31.9 12.2-16.3-0.5-34.6-7.7-50.2-19.7-15.5-11.8-26.2-29.4-30.8-50.9-5.5-25.2-1.6-54 11.3-83.3 9-20.3 20.9-41.4 35.6-63 4.4 34.7 15.3 69.4 32.5 103.6 5.4 10.8 11.6 21.1 18.5 30.8 8.7 13 19.6 29.2 22.7 42.2 1.6 6.9 2.4 15.2-7.6 27.9z m99.7-149.5c-12.8-0.5-24.9-5.1-35.9-13.9-11.9-9.3-19.6-23.9-22.5-42.1-3.3-23.9 2.1-51.5 15.7-80 7.2-15.5 16.7-31.6 28.1-48.1 1.9 28.2 9.1 56.3 21.3 83.7l0.1 0.2c4 8.2 8.1 16.7 12.2 24.3l1.8 3.4c7.1 13.5 14.5 27.5 16.9 39.1l0.1 0.3c2.9 11.6-0.2 15.4-2.2 17.9l-0.1 0.1c-6.8 8.8-17.4 14-29.9 14.8l-0.7 0.1c-1.4 0.2-2.6 0.2-4 0.2h-0.9zM804.3 482c-13.4 15.2-26.8 28.5-39.4 39-24.4 20.3-49.8 32.3-73.4 34.7l-1 0.1c-3.4 0.3-6.9 0.6-9.9 0.4h-0.1c-13.7-0.5-25.3-4.5-34.6-11.9l-0.2-0.1c-12.4-9.4-20.6-22.5-23.1-36.9-2.1-12.3 0.5-24.2 7.1-32.6l0.1-0.1c1.6-2.1 4.4-6 16.7-6.5l4.1 0.2c13.2 0.5 29 4.1 41.3 7.1l2.4 0.6 0.3 0.1c2.9 0.6 5.8 1.3 8.7 2 5 1.2 10.2 2.4 15.2 3.2 28.2 5.4 57.6 5.6 85.8 0.7z" p-id="4513" fill="#13227a"></path></svg>