<?xml version="1.0" standalone="no"?><!DOCTYPE svg PUBLIC "-//W3C//DTD SVG 1.1//EN" "http://www.w3.org/Graphics/SVG/1.1/DTD/svg11.dtd"><svg t="1657037237249" class="icon" viewBox="0 0 1024 1024" version="1.1" xmlns="http://www.w3.org/2000/svg" p-id="6399" xmlns:xlink="http://www.w3.org/1999/xlink" width="200" height="200"><defs><style type="text/css">@font-face { font-family: feedback-iconfont; src: url("//at.alicdn.com/t/font_1031158_u69w8yhxdu.woff2?t=1630033759944") format("woff2"), url("//at.alicdn.com/t/font_1031158_u69w8yhxdu.woff?t=1630033759944") format("woff"), url("//at.alicdn.com/t/font_1031158_u69w8yhxdu.ttf?t=1630033759944") format("truetype"); }
</style></defs><path d="M928 640H96c-35.2 0-64-28.8-64-64s28.8-64 64-64h832c35.2 0 64 28.8 64 64s-28.8 64-64 64z" fill="#13227a" p-id="6400"></path><path d="M960 800v-64a32 32 0 0 0-32-32H96a32 32 0 0 0-32 32v64c0 70.592 57.408 128 128 128h640c70.592 0 128-57.408 128-128zM128 800v-32h768v32c0 35.296-28.704 64-64 64H192c-35.296 0-64-28.704-64-64zM928 480H96c-52.928 0-96 43.072-96 96s43.072 96 96 96h832c52.928 0 96-43.072 96-96s-43.072-96-96-96z m0 128H96a32.032 32.032 0 0 1 0-64h832a32.032 32.032 0 0 1 0 64zM96 448h832.64a32 32 0 0 0 31.232-38.976C954.048 244.32 743.232 96 512 96 277.536 96 64 248.544 64 416a32 32 0 0 0 32 32z m416-288c196.992 0 353.728 114.176 380.096 224H131.904C158.272 274.176 315.008 160 512 160z" fill="#13227a" p-id="6401"></path><path d="M352 288m-32 0a32 32 0 1 0 64 0 32 32 0 1 0-64 0Z" fill="#13227a" p-id="6402"></path><path d="M544 224m-32 0a32 32 0 1 0 64 0 32 32 0 1 0-64 0Z" fill="#13227a" p-id="6403"></path><path d="M704 320m-32 0a32 32 0 1 0 64 0 32 32 0 1 0-64 0Z" fill="#13227a" p-id="6404"></path></svg>